<?xml version="1.0" standalone="no"?>
<svg version="1.0" xmlns="http://www.w3.org/2000/svg"
 width="600.000000pt" height="600.000000pt" viewBox="130 130 340 340"
 preserveAspectRatio="xMidYMid meet">
<g transform="translate(0.000000,600.000000) scale(0.100000,-0.100000)"
fill="#FFFFFF" stroke="none">
<path d="M2990 4243 c-219 -23 -455 -122 -628 -261 -42 -34 -43 -35 -135 -33
-232 5 -434 -82 -598 -256 -232 -247 -279 -588 -118 -860 73 -122 240 -261
405 -338 l72 -33 11 -53 c11 -49 10 -56 -23 -133 -79 -186 -69 -318 34 -429
104 -113 228 -118 680 -27 473 95 509 98 707 64 147 -25 412 -39 429 -21 4 4
2 36 -4 71 -7 35 -15 98 -19 140 l-6 77 64 -8 c116 -15 328 -9 393 11 148 44
245 120 297 229 54 116 49 239 -17 376 -46 99 -157 210 -264 265 l-75 39 -1
136 c-2 184 -31 307 -109 461 -194 384 -657 630 -1095 583z m235 -44 c382 -47
714 -290 856 -627 55 -132 87 -319 74 -434 l-7 -59 -32 7 c-50 11 -60 10 -64
-8 -2 -13 8 -20 40 -28 24 -6 52 -15 63 -19 11 -5 35 -15 53 -22 54 -20 143
-82 194 -135 46 -47 62 -73 36 -58 -8 4 -10 3 -5 -2 5 -5 14 -9 20 -9 18 0 64
-93 83 -166 20 -79 13 -162 -20 -234 -82 -180 -308 -263 -615 -225 l-104 13 7
66 c12 123 19 161 27 161 5 0 9 -5 9 -10 0 -13 118 -100 136 -100 29 0 12 36
-29 62 -23 15 -55 40 -71 57 l-29 30 27 11 c15 5 30 10 34 10 19 0 182 85 186
97 11 28 -26 24 -92 -10 -37 -19 -93 -43 -124 -53 l-58 -18 -167 82 c-180 87
-377 172 -399 172 -29 0 -12 16 29 28 53 14 141 81 145 110 5 31 -14 27 -60
-12 -53 -46 -114 -73 -179 -82 l-54 -7 26 29 c34 37 52 72 44 84 -12 20 -31 8
-60 -38 -36 -56 -39 -56 -180 -18 -55 15 -143 34 -195 42 -94 15 -320 22 -357
10 -31 -10 -86 85 -91 157 -4 46 -8 57 -22 57 -42 0 -29 -105 23 -187 l27 -43
-39 0 c-95 0 -304 104 -390 194 -55 57 -87 39 -37 -21 12 -15 21 -33 19 -39
-6 -17 115 -125 176 -158 30 -16 51 -24 47 -17 -4 6 0 11 11 12 14 0 15 2 3 6
-8 3 -19 11 -23 17 -5 6 -6 3 -3 -9 5 -17 3 -16 -15 5 -11 14 -17 18 -13 10 6
-13 5 -13 -12 0 -10 9 -30 21 -44 28 -38 20 -126 99 -118 107 4 4 23 -6 41
-22 67 -59 221 -134 279 -135 35 -1 30 -8 -10 -13 -119 -15 -232 -155 -232
-285 0 -28 -2 -50 -5 -50 -14 0 -156 77 -210 113 -225 152 -344 389 -315 624
12 92 18 114 51 195 55 134 164 262 296 348 134 88 268 125 428 117 129 -6
214 -28 333 -88 95 -48 112 -51 112 -23 0 19 -182 107 -260 126 l-55 14 75 53
c147 104 331 179 498 205 110 18 174 19 287 5z m949 -1137 c3 -5 -1 -9 -9 -9
-8 0 -12 4 -9 9 3 4 7 8 9 8 2 0 6 -4 9 -8z m-1404 -217 c246 -40 504 -130
858 -300 146 -71 163 -81 158 -100 -3 -12 -9 -54 -12 -93 -7 -70 -7 -71 -33
-66 -14 2 -67 11 -118 19 -101 17 -250 58 -357 99 -67 25 -98 24 -81 -4 23
-37 428 -150 538 -150 l36 0 3 -106 3 -107 -93 7 c-185 13 -404 69 -573 147
-67 31 -104 33 -93 6 6 -16 165 -85 281 -121 119 -37 272 -66 384 -73 l97 -6
9 -48 10 -48 -37 -6 c-81 -14 -350 23 -622 85 -558 128 -659 145 -812 137
-125 -6 -166 -18 -217 -64 -49 -45 -69 -81 -69 -128 0 -19 -4 -35 -9 -35 -11
0 -47 85 -55 132 -15 82 46 278 102 330 36 34 70 51 84 42 7 -4 8 -3 4 4 -7
11 107 52 144 52 22 0 34 16 26 35 -4 11 -15 11 -68 -1 -76 -18 -192 -70 -184
-83 8 -13 -9 -22 -27 -15 -24 9 -29 33 -7 27 13 -3 30 6 50 26 18 17 36 31 41
31 5 0 9 9 9 20 0 31 -30 24 -73 -17 l-39 -38 4 100 c5 111 16 142 73 200 47
47 96 70 207 99 113 30 308 35 458 11z m452 -72 c-6 -3 -9 -10 -5 -16 4 -7 -1
-6 -10 2 -13 11 -17 11 -17 1 0 -8 -3 -11 -6 -7 -11 10 4 23 28 24 13 0 17 -1
10 -4z m613 -323 c3 -18 2 -20 -10 -10 -8 6 -11 18 -8 26 7 18 12 13 18 -16z
m-40 -270 c3 -5 1 -10 -4 -10 -6 0 -11 5 -11 10 0 6 2 10 4 10 3 0 8 -4 11
-10z m-1320 -105 c33 -4 98 -13 145 -21 47 -8 96 -17 110 -19 14 -2 61 -13
105 -25 110 -28 224 -52 260 -56 17 -2 44 -5 60 -8 17 -3 35 -5 40 -6 6 -1 -3
-6 -20 -11 -16 -5 -42 -7 -56 -3 -36 7 -185 -16 -458 -71 -123 -25 -232 -45
-243 -45 -10 0 -17 -3 -15 -7 3 -5 -58 -8 -135 -9 -77 0 -133 3 -126 7 9 6 7
9 -8 9 -12 0 -34 10 -49 22 -24 19 -27 26 -21 65 3 24 11 54 18 66 7 12 12 27
13 34 0 7 9 19 20 28 11 9 14 13 6 9 -9 -5 -12 -3 -7 5 4 6 15 10 24 9 10 -2
16 3 14 10 -1 8 1 11 6 8 4 -2 41 1 80 7 75 13 133 13 237 2z m-428 -194 c-1
-18 -7 -27 -14 -24 -15 6 -17 23 -3 23 6 0 10 7 10 15 0 8 2 15 5 15 2 0 3
-13 2 -29z"/>
<path d="M2985 4138 c-33 -6 -75 -11 -93 -11 -22 0 -29 -3 -20 -10 8 -5 1 -7
-20 -3 -20 4 -31 2 -27 -4 3 -6 0 -11 -7 -11 -54 -5 -73 -10 -76 -19 -2 -5 -8
-10 -14 -10 -6 0 -8 6 -5 13 3 8 -1 14 -8 14 -7 0 -11 -6 -8 -13 2 -7 -13 -20
-36 -30 -23 -10 -41 -21 -41 -25 0 -4 -12 -10 -27 -14 -15 -3 -33 -14 -41 -23
-7 -9 -11 -12 -8 -5 4 6 2 14 -4 18 -6 4 -7 11 -4 17 5 7 2 8 -5 3 -8 -5 -9
-11 -3 -17 7 -7 3 -17 -10 -30 -18 -18 -24 -19 -41 -9 -15 10 -18 10 -11 0 5
-8 2 -11 -8 -7 -8 4 -15 0 -15 -7 0 -11 5 -12 21 -3 18 10 19 9 9 -4 -26 -31
1 -25 71 17 384 227 834 219 1191 -21 44 -29 102 -74 129 -99 26 -26 50 -44
52 -42 3 2 -20 26 -49 53 -83 75 -106 94 -118 94 -5 0 -7 6 -3 13 4 6 4 9 -1
5 -4 -4 -13 -2 -21 5 -26 23 -39 33 -44 33 -11 0 -105 49 -108 57 -2 4 -14 7
-27 7 -13 0 -26 4 -29 9 -3 5 -37 17 -76 26 -38 9 -68 20 -65 24 2 4 -10 8
-28 9 -18 0 -95 3 -172 6 -82 3 -165 0 -200 -6z"/>
<path d="M2092 3865 c-51 -12 -95 -23 -97 -23 -3 -1 -19 -9 -36 -18 -17 -8
-37 -13 -44 -10 -9 3 -12 0 -9 -9 4 -9 -3 -16 -20 -21 -14 -3 -26 -10 -26 -14
0 -11 -92 -55 -110 -53 -10 2 -11 0 -2 -3 6 -3 12 -10 12 -15 0 -6 -4 -7 -10
-4 -6 3 -7 -1 -4 -9 3 -9 8 -16 10 -16 1 0 31 21 66 48 130 98 290 152 452
152 55 0 97 2 95 5 -3 2 -46 6 -95 9 -69 3 -110 -1 -182 -19z"/>
<path d="M3930 3786 c0 -2 8 -10 18 -17 15 -13 16 -12 3 4 -13 16 -21 21 -21
13z"/>
<path d="M1705 3681 c-3 -5 -2 -12 3 -15 5 -3 9 1 9 9 0 17 -3 19 -12 6z"/>
<path d="M1730 3674 c0 -6 -7 -19 -16 -30 -8 -10 -12 -12 -8 -4 4 9 -2 7 -13
-5 -11 -11 -19 -23 -17 -26 5 -8 -27 -23 -40 -20 -5 1 -4 -5 3 -13 11 -13 10
-17 -3 -22 -9 -3 -14 -10 -11 -14 2 -4 -4 -15 -15 -25 -11 -10 -20 -24 -20
-32 0 -7 -6 -16 -14 -19 -8 -3 -17 -17 -21 -32 -4 -15 -10 -29 -13 -32 -4 -3
-18 -34 -30 -70 -18 -49 -25 -91 -27 -175 l-4 -110 9 93 c17 169 93 340 209
464 41 45 51 62 43 70 -7 7 -12 8 -12 2z"/>
<path d="M4112 3345 c0 -16 2 -22 5 -12 2 9 2 23 0 30 -3 6 -5 -1 -5 -18z"/>
<path d="M4111 3294 c0 -11 3 -14 6 -6 3 7 2 16 -1 19 -3 4 -6 -2 -5 -13z"/>
<path d="M4111 3178 c0 -31 2 -59 7 -61 4 -3 6 16 4 41 -5 73 -10 82 -11 20z"/>
<path d="M2075 3004 c11 -8 45 -22 75 -31 30 -9 62 -18 70 -21 8 -3 12 -2 8 3
-4 4 -45 20 -90 36 -47 16 -74 21 -63 13z"/>
<path d="M4201 2970 c30 -21 72 -49 94 -61 22 -12 54 -31 70 -43 46 -34 64
-41 30 -12 -16 15 -37 33 -45 40 -21 19 -183 116 -194 116 -5 0 15 -18 45 -40z"/>
<path d="M2387 2973 c-3 -5 48 -7 113 -5 65 2 135 -1 155 -7 21 -6 45 -7 53
-2 9 5 -9 10 -48 14 -86 9 -268 9 -273 0z"/>
<path d="M2755 2950 c40 -12 203 -51 235 -56 20 -3 19 -2 -5 6 -77 27 -165 48
-220 55 -36 4 -37 4 -10 -5z"/>
<path d="M3095 2905 c-16 -8 -41 -14 -54 -15 -20 0 -23 -15 -3 -15 4 0 13 -4
21 -9 10 -6 12 -5 7 2 -7 12 35 34 56 29 6 -1 13 4 15 11 6 15 -3 14 -42 -3z"/>
<path d="M2023 2833 c-25 -22 -43 -56 -43 -80 0 -10 9 1 20 25 10 23 23 42 28
42 6 0 12 7 16 15 7 19 4 19 -21 -2z"/>
<path d="M3206 2822 c-2 -4 4 -8 15 -8 10 0 19 4 19 8 0 4 -6 8 -14 8 -8 0
-17 -4 -20 -8z"/>
<path d="M4430 2771 c0 -5 5 -13 10 -16 6 -3 10 -2 10 4 0 5 -4 13 -10 16 -5
3 -10 2 -10 -4z"/>
<path d="M3349 2752 c-8 -9 -9 -14 -5 -10 5 4 15 3 22 -3 8 -7 19 -7 30 -1 9
5 13 11 8 14 -28 15 -44 15 -55 0z"/>
<path d="M3439 2720 c13 -11 30 -20 39 -20 19 0 15 3 -28 24 l-35 17 24 -21z"/>
<path d="M1954 2716 c-3 -8 -4 -25 -2 -38 2 -19 5 -17 15 15 10 35 -1 55 -13
23z"/>
<path d="M4471 2718 c-1 -4 4 -19 11 -35 6 -15 14 -48 18 -73 l7 -45 1 40 c0
32 -35 138 -37 113z"/>
<path d="M1730 2696 c0 -3 9 -10 20 -16 11 -6 20 -8 20 -6 0 3 -9 10 -20 16
-11 6 -20 8 -20 6z"/>
<path d="M3495 2690 c-3 -5 -1 -10 4 -10 6 0 11 5 11 10 0 6 -2 10 -4 10 -3 0
-8 -4 -11 -10z"/>
<path d="M3557 2659 c7 -7 15 -10 18 -7 3 3 -2 9 -12 12 -14 6 -15 5 -6 -5z"/>
<path d="M1781 2657 c43 -34 68 -46 75 -36 4 8 3 9 -4 5 -7 -4 -12 -3 -12 2 0
5 -11 14 -25 20 -24 11 -44 16 -34 9z"/>
<path d="M1941 2620 c0 -33 1 -34 10 -11 6 16 6 28 -1 35 -7 7 -10 -1 -9 -24z"/>
<path d="M3628 2633 c6 -2 10 -8 8 -11 -2 -4 8 -8 22 -9 l27 -1 -25 14 c-14 7
-29 13 -35 13 -5 0 -4 -3 3 -6z"/>
<path d="M1870 2600 c9 -5 22 -10 30 -12 8 -2 19 -7 23 -13 5 -6 7 -4 4 5 -2
8 -10 14 -16 13 -6 -2 -11 2 -11 7 0 6 -10 10 -22 10 -19 -1 -20 -2 -8 -10z"/>
<path d="M4120 2606 c0 -2 8 -10 18 -17 15 -13 16 -12 3 4 -13 16 -21 21 -21
13z"/>
<path d="M3747 2582 c23 -10 48 -23 55 -30 6 -6 21 -12 33 -11 17 1 17 2 -5
10 -18 6 -10 7 29 4 36 -2 50 0 40 6 -7 5 -33 9 -57 9 -23 0 -59 7 -79 15 -19
8 -41 15 -47 14 -6 0 8 -8 31 -17z"/>
<path d="M4500 2547 c0 -27 -60 -133 -97 -171 -21 -21 -53 -45 -70 -53 -37
-15 -39 -18 -17 -27 8 -3 13 -2 10 3 -7 11 22 23 36 14 7 -3 8 -1 4 5 -4 7 2
16 16 23 22 10 80 85 93 121 4 10 10 16 14 13 4 -2 8 1 8 8 0 7 3 27 7 45 4
17 5 32 2 32 -3 0 -6 -6 -6 -13z"/>
<path d="M3841 2348 c-1 -7 -4 -42 -6 -78 -3 -52 -2 -57 4 -25 16 77 20 115
12 115 -4 0 -9 -6 -10 -12z"/>
<path d="M4233 2282 c-42 -17 -76 -42 -38 -28 11 4 28 9 37 11 32 7 76 36 51
34 -5 0 -27 -8 -50 -17z"/>
<path d="M3941 2280 c7 -4 30 -10 49 -13 29 -6 32 -5 15 5 -10 6 -33 12 -49
14 -19 1 -24 -1 -15 -6z"/>
<path d="M4070 2250 l-55 -7 55 -1 c30 0 64 3 75 8 l20 9 -20 -1 c-11 -1 -45
-4 -75 -8z"/>
<path d="M3928 2243 c7 -3 16 -2 19 1 4 3 -2 6 -13 5 -11 0 -14 -3 -6 -6z"/>
<path d="M2441 2838 c-52 -4 -96 -9 -98 -12 -2 -2 54 -1 125 2 315 12 634 -75
1111 -304 96 -46 176 -84 178 -84 1 0 3 5 3 12 0 6 -3 8 -6 5 -4 -4 -19 2 -34
13 -16 11 -33 20 -39 20 -6 0 -11 5 -11 10 0 6 -8 10 -19 10 -10 0 -24 7 -31
15 -6 8 -15 13 -18 12 -4 -1 -68 25 -142 57 -74 32 -144 62 -155 67 -335 139
-613 196 -864 177z"/>
<path d="M2308 2813 c7 -3 16 -2 19 1 4 3 -2 6 -13 5 -11 0 -14 -3 -6 -6z"/>
<path d="M2268 2803 c7 -3 16 -2 19 1 4 3 -2 6 -13 5 -11 0 -14 -3 -6 -6z"/>
<path d="M2275 2430 c-16 -7 -17 -9 -3 -9 9 -1 20 4 23 9 7 11 7 11 -20 0z"/>
<path d="M3162 2373 c4 -24 218 -97 372 -127 150 -30 216 -39 196 -27 -8 4
-40 11 -70 15 -30 4 -93 16 -140 27 -47 12 -94 22 -105 24 -38 5 -220 77 -231
91 -15 19 -26 18 -22 -3z"/>
<path d="M3752 2345 c0 -16 2 -22 5 -12 2 9 2 23 0 30 -3 6 -5 -1 -5 -18z"/>
<path d="M2985 2177 c-4 -10 -6 -19 -4 -20 2 -2 36 -18 76 -35 187 -85 410
-140 593 -147 l105 -4 -105 10 c-58 5 -150 19 -205 30 -190 41 -440 134 -448
168 -3 14 -5 13 -12 -2z"/>
<path d="M3732 2120 c0 -14 2 -19 5 -12 2 6 2 18 0 25 -3 6 -5 1 -5 -13z"/>
<path d="M3752 1935 c0 -16 2 -22 5 -12 2 9 2 23 0 30 -3 6 -5 -1 -5 -18z"/>
<path d="M2258 2033 c12 -2 32 -2 45 0 12 2 2 4 -23 4 -25 0 -35 -2 -22 -4z"/>
<path d="M2495 2020 c19 -8 73 -14 64 -6 -2 2 -22 6 -44 9 -28 5 -34 4 -20 -3z"/>
<path d="M2158 2013 c7 -3 16 -2 19 1 4 3 -2 6 -13 5 -11 0 -14 -3 -6 -6z"/>
<path d="M2583 2003 c9 -2 23 -2 30 0 6 3 -1 5 -18 5 -16 0 -22 -2 -12 -5z"/>
<path d="M2643 1993 c9 -2 25 -2 35 0 9 3 1 5 -18 5 -19 0 -27 -2 -17 -5z"/>
<path d="M2715 1980 c3 -5 8 -10 11 -10 2 0 4 5 4 10 0 6 -5 10 -11 10 -5 0
-7 -4 -4 -10z"/>
<path d="M2861 1946 c2 -2 22 -6 44 -9 28 -5 34 -4 20 3 -19 8 -73 14 -64 6z"/>
</g>
</svg>